<svg width="30" height="26" viewBox="0 0 30 26" fill="none" xmlns="http://www.w3.org/2000/svg">
<path d="M8.53462 17.0829C8.53673 17.0829 8.53671 17.0829 8.53671 17.0829H26.4284C26.6976 17.0829 26.9353 16.8978 27.0016 16.6349L29.9821 4.71061C29.9884 4.68642 29.9695 4.66329 29.9716 4.63489C29.9758 4.61386 30 4.59597 30 4.56757C30 4.51183 29.9548 4.47503 29.94 4.41929C29.918 4.34567 29.9053 4.2794 29.8559 4.22051C29.8065 4.1553 29.7465 4.12796 29.6792 4.09115C29.6319 4.06485 29.6077 4.00701 29.5519 3.99439C29.5236 3.99019 29.5067 4.00701 29.4783 4.0028C29.4542 4.0028 29.4352 3.97652 29.411 3.97652H24.2692C23.9411 3.97652 23.6761 4.24365 23.6761 4.56757C23.6761 4.89571 23.9411 5.15863 24.2692 5.15863H28.6506L25.9635 15.8997H8.9984L6.31341 5.15863H10.6969C11.0219 5.15863 11.288 4.89571 11.288 4.56757C11.288 4.24259 11.0209 3.97652 10.6969 3.97652H6.01788L5.13445 0.448039C5.07029 0.185111 4.83049 0 4.56125 0H0.593159C0.266077 0 0 0.26925 0 0.591073C0 0.919206 0.267129 1.18213 0.593159 1.18213H4.09956L4.98299 4.71061L7.81523 16.0428C7.40612 16.1616 7.01806 16.3467 6.7078 16.657C6.22086 17.1481 5.95582 17.7928 5.95792 18.4764C5.95792 19.2957 6.36282 19.994 6.95809 20.4673C6.87605 20.5315 6.77722 20.5641 6.7078 20.6335C6.22086 21.1225 5.95582 21.7693 5.95792 22.4529C5.95792 23.878 7.11481 25.0328 8.53356 25.0328C9.22348 25.0328 9.87658 24.7656 10.3635 24.2745C10.8484 23.7833 11.1134 23.1386 11.1113 22.4529C11.1113 21.9271 10.9157 21.4685 10.6433 21.0584H24.4922C24.2167 21.4791 24.0242 21.946 24.0263 22.4529C24.0263 23.878 25.1832 25.0328 26.604 25.0328C27.2961 25.0328 27.9428 24.7656 28.4298 24.2745C28.9188 23.7897 29.186 23.1428 29.1839 22.4529C29.1839 21.0331 28.027 19.8794 26.6082 19.8731H26.6061H8.53356C7.76582 19.8731 7.1411 19.2505 7.1411 18.4764C7.13899 18.1083 7.28519 17.7571 7.54601 17.492C7.8121 17.2312 8.16337 17.0829 8.53462 17.0829ZM9.93129 22.4614C9.9334 22.8316 9.7893 23.1765 9.52638 23.4415C9.26134 23.7087 8.90798 23.8528 8.53462 23.8528C7.76687 23.8528 7.14215 23.228 7.14215 22.4561C7.14005 22.0859 7.28414 21.7346 7.54707 21.4717C7.8121 21.2088 8.16337 21.0605 8.53462 21.0605C9.30342 21.0605 9.93129 21.6883 9.93129 22.4614ZM28.0017 22.4614C28.0017 22.8316 27.8577 23.1765 27.5947 23.4415C27.3297 23.7087 26.9784 23.8528 26.6051 23.8528C25.8384 23.8528 25.2105 23.228 25.2105 22.4561C25.2105 22.0827 25.3546 21.7346 25.6175 21.4717C25.8825 21.2088 26.2317 21.0605 26.6051 21.0605C27.3749 21.0605 28.0017 21.6883 28.0017 22.4614Z" fill="#002B59"/>
</svg>
