<svg width="34" height="23" viewBox="0 0 34 23" fill="none" xmlns="http://www.w3.org/2000/svg">
<path d="M2.33154 4.16235H11.4893" stroke="#002B59" stroke-linecap="round" stroke-linejoin="round"/>
<path d="M4.1626 7.82483H11.4888" stroke="#002B59" stroke-linecap="round" stroke-linejoin="round"/>
<path d="M5.99414 11.4873H11.4888" stroke="#002B59" stroke-linecap="round" stroke-linejoin="round"/>
<path d="M7.82568 15.15H11.4888" stroke="#002B59" stroke-linecap="round" stroke-linejoin="round"/>
<path d="M10.0537 18.3125C9.87217 18.6133 9.74735 18.9509 9.69238 19.3125H6.91016C6.63424 19.3124 6.41033 19.0884 6.41016 18.8125C6.4103 18.5366 6.63422 18.3126 6.91016 18.3125H10.0537ZM23.3105 0C24.1387 0.000288131 24.8105 0.671751 24.8105 1.5V17.8125C24.8104 18.6406 24.1386 19.3122 23.3105 19.3125H15.1182C15.0632 18.9508 14.9384 18.6134 14.7568 18.3125H23.3105C23.5863 18.3122 23.8104 18.0883 23.8105 17.8125V1.5C23.8105 1.22404 23.5864 1.00029 23.3105 1H0.5C0.223965 1 0.000174778 0.775994 0 0.5C0 0.223858 0.223858 0 0.5 0H23.3105Z" fill="black"/>
<path d="M26.5391 18.3119C26.3573 18.6128 26.2318 18.9501 26.1768 19.3119H22.4795C22.2033 19.3119 21.9795 19.088 21.9795 18.8119C21.9799 18.5361 22.2036 18.3119 22.4795 18.3119H26.5391ZM33.0254 10.7719C33.5948 10.9996 33.9686 11.5512 33.9688 12.1644V17.8119C33.9688 18.6402 33.2971 19.3118 32.4688 19.3119H31.6025C31.5475 18.9501 31.422 18.6128 31.2402 18.3119H32.4688C32.7448 18.3118 32.9688 18.088 32.9688 17.8119V12.1644C32.9686 11.9601 32.844 11.7755 32.6543 11.6996L24.125 8.28845L24.3115 7.82458L24.4971 7.36072L33.0254 10.7719ZM23.8467 7.63904C23.9494 7.38288 24.2408 7.25822 24.4971 7.36072L24.125 8.28845C23.869 8.18577 23.7443 7.89525 23.8467 7.63904Z" fill="black"/>
<path d="M28.8892 17.4813C30.1304 17.4813 31.1372 18.4875 31.1372 19.7284C31.1371 20.9692 30.1303 21.9755 28.8892 21.9755C27.6481 21.9753 26.6422 20.9691 26.6421 19.7284C26.6421 18.4876 27.648 17.4815 28.8892 17.4813Z" stroke="#002B59"/>
<path d="M12.4053 17.4813C13.6465 17.4813 14.6533 18.4875 14.6533 19.7284C14.6532 20.9692 13.6465 21.9755 12.4053 21.9755C11.1642 21.9753 10.1583 20.9691 10.1582 19.7284C10.1582 18.4876 11.1642 17.4815 12.4053 17.4813Z" stroke="#002B59"/>
</svg>
