<svg width="27" height="26" viewBox="0 0 27 26" fill="none" xmlns="http://www.w3.org/2000/svg">
<path d="M26.9983 7.05567C26.9983 6.78557 26.7814 6.56844 26.5128 6.56844H25.1072L20.3697 1.78823C20.1898 1.60324 19.867 1.60324 19.6871 1.78823L16.8208 4.67687L12.3303 0.145907C12.2399 0.0529778 12.1168 0 11.9877 0C11.8603 0 11.7372 0.0529778 11.6451 0.145907L5.27987 6.56844H2.10887H2.10715H2.10543C1.80072 6.56844 1.51496 6.44598 1.29977 6.22712C1.1741 6.09858 1.09147 5.94053 1.03724 5.76944C1.00023 5.65567 0.966658 5.54014 0.966658 5.41507C0.966658 5.10502 1.08458 4.81756 1.29977 4.60043C1.51323 4.38331 1.80072 4.26086 2.10801 4.26086H7.20881C7.4765 4.26086 7.69255 4.04199 7.69255 3.77275C7.69255 3.50439 7.47564 3.28465 7.20881 3.28465H2.10801C1.54164 3.28465 1.01228 3.50525 0.613751 3.91084C0.216946 4.31122 -0.00340325 4.84534 3.97488e-05 5.41507V23.2332C3.97488e-05 24.41 0.94514 25.3636 2.10801 25.3636H26.5128C26.7814 25.3636 26.9983 25.1465 26.9983 24.8755V18.4313C26.9983 18.4313 27 18.4313 27 18.4261V15.144L26.9983 15.1388V7.05567ZM26.0299 17.9388H17.2744V15.6321H26.0299V17.9388ZM20.0288 2.82175L23.7395 6.56844H18.6946L17.5094 5.36906L20.0288 2.82175ZM11.9877 1.17942L17.3217 6.56844H6.65018L11.9877 1.17942ZM2.10887 24.3866C1.48139 24.3866 0.967518 23.8707 0.967518 23.2332V7.20853C1.03982 7.25629 1.12245 7.27801 1.19992 7.31709C1.26189 7.34749 1.32129 7.37789 1.38671 7.40047C1.61222 7.48558 1.84548 7.54116 2.09768 7.54116C2.10113 7.54116 2.10285 7.54638 2.10629 7.54638C2.10801 7.54638 2.10801 7.54638 2.10973 7.54638H2.11146H5.48215H18.4958H24.9075H26.0308V14.6559H16.7907C16.5247 14.6559 16.3078 14.8765 16.3078 15.144V18.4261C16.3078 18.697 16.5247 18.9159 16.7907 18.9159H26.0299V24.3866H2.10887Z" fill="#002B59"/>
</svg>
