<svg width="18" height="24" viewBox="0 0 18 24" fill="none" xmlns="http://www.w3.org/2000/svg">
<rect x="0.35" y="0.35" width="17.0818" height="23.3" rx="1.65" stroke="white" stroke-width="0.7"/>
<rect x="2.11172" y="2.00613" width="13.5574" height="5.03373" rx="1.65" stroke="white" stroke-width="0.7"/>
<rect x="2.15664" y="9.22" width="2.98554" height="2.76698" rx="1.38349" stroke="white" stroke-width="0.7"/>
<rect x="2.15664" y="14.1636" width="2.98554" height="2.76698" rx="1.38349" stroke="white" stroke-width="0.7"/>
<path d="M3.54004 19.1069H8.91113C9.67518 19.1069 10.2949 19.7267 10.2949 20.4907C10.2949 21.2548 9.67521 21.8745 8.91113 21.8745H3.54004C2.776 21.8745 2.15625 21.2548 2.15625 20.4907C2.1563 19.7267 2.77603 19.107 3.54004 19.1069Z" stroke="white" stroke-width="0.7"/>
<rect x="7.4125" y="9.22" width="2.98554" height="2.76698" rx="1.38349" stroke="white" stroke-width="0.7"/>
<rect x="7.4125" y="14.1636" width="2.98554" height="2.76698" rx="1.38349" stroke="white" stroke-width="0.7"/>
<rect x="12.6664" y="9.22" width="2.98554" height="2.76698" rx="1.38349" stroke="white" stroke-width="0.7"/>
<rect x="12.6664" y="14.1636" width="2.98554" height="2.76698" rx="1.38349" stroke="white" stroke-width="0.7"/>
<rect x="12.6664" y="19.1073" width="2.98554" height="2.76698" rx="1.38349" stroke="white" stroke-width="0.7"/>
</svg>
