<svg width="25" height="24" viewBox="0 0 25 24" fill="none" xmlns="http://www.w3.org/2000/svg">
<path d="M3.80078 9H9.80078" stroke="white" stroke-linecap="round" stroke-linejoin="round"/>
<path d="M5 11.4H9.8" stroke="white" stroke-linecap="round" stroke-linejoin="round"/>
<path d="M6.19922 13.8H9.79922" stroke="white" stroke-linecap="round" stroke-linejoin="round"/>
<path d="M7.40039 16.2H9.80039" stroke="white" stroke-linecap="round" stroke-linejoin="round"/>
<path d="M8.97754 18.0996C8.76087 18.3793 8.62518 18.7236 8.60449 19.0996H6.7998C6.52384 19.0994 6.2998 18.8756 6.2998 18.5996C6.30002 18.3238 6.52397 18.0998 6.7998 18.0996H8.97754ZM17.1992 6.09961C18.0275 6.09961 18.699 6.77136 18.6992 7.59961V17.5996C18.6992 18.428 18.0276 19.0996 17.1992 19.0996H12.1953C12.1746 18.7236 12.039 18.3793 11.8223 18.0996H17.1992C17.4754 18.0996 17.6992 17.8758 17.6992 17.5996V7.59961C17.699 7.32365 17.4752 7.09961 17.1992 7.09961H2.59961C2.32365 7.0994 2.09961 6.87562 2.09961 6.59961C2.09982 6.32378 2.32378 6.09982 2.59961 6.09961H17.1992Z" fill="white"/>
<path d="M19.7764 18.1006C19.56 18.3803 19.4258 18.7248 19.4053 19.1006H17C16.7241 19.1006 16.5003 18.8765 16.5 18.6006C16.5 18.3245 16.7239 18.1006 17 18.1006H19.7764ZM18.2881 10.9082L18.3857 10.9366L23.7568 13.085C24.3262 13.3128 24.7002 13.8643 24.7002 14.4776V17.6006C24.6999 18.4287 24.0283 19.1005 23.2002 19.1006H22.9951C22.9746 18.7247 22.8395 18.3804 22.623 18.1006H23.2002C23.476 18.1005 23.6999 17.8764 23.7002 17.6006V14.4776C23.7002 14.2733 23.5754 14.0897 23.3857 14.0137L18.0146 11.8643L17.9248 11.8174C17.7307 11.6896 17.646 11.4391 17.7354 11.2149C17.8251 10.9906 18.0593 10.8671 18.2881 10.9082Z" fill="white"/>
<circle cx="21.2004" cy="19.2" r="1.3" stroke="white"/>
<circle cx="10.3996" cy="19.2" r="1.3" stroke="white"/>
</svg>
