<svg width="21" height="18" viewBox="0 0 21 18" fill="none" xmlns="http://www.w3.org/2000/svg">
<path d="M0.776312 7.52514L2.16093 1.52514C2.26563 1.07141 2.66966 0.75 3.13532 0.75H5.28873C5.91486 0.75 6.38699 1.31888 6.2716 1.93429L5.1466 7.93429C5.05792 8.40726 4.64494 8.75 4.16373 8.75H1.7507C1.10762 8.75 0.631709 8.15176 0.776312 7.52514Z" stroke="white" stroke-width="1.5" stroke-linecap="round" stroke-linejoin="round"/>
<path d="M20.211 7.52514L18.8264 1.52514C18.7217 1.07141 18.3176 0.75 17.852 0.75H15.6986C15.0724 0.75 14.6003 1.31888 14.7157 1.93429L15.8407 7.93429C15.9294 8.40726 16.3424 8.75 16.8236 8.75H19.2366C19.8797 8.75 20.3556 8.15176 20.211 7.52514Z" stroke="white" stroke-width="1.5" stroke-linecap="round" stroke-linejoin="round"/>
<path d="M5.24713 7.54427L6.50849 1.54427C6.6058 1.08139 7.01411 0.75 7.4871 0.75H9.49365C10.0459 0.75 10.4937 1.19772 10.4937 1.75V7.75C10.4937 8.30228 10.0459 8.75 9.49365 8.75H6.22574C5.59068 8.75 5.11648 8.16574 5.24713 7.54427Z" stroke="white" stroke-width="1.5" stroke-linecap="round" stroke-linejoin="round"/>
<path d="M15.7402 7.54427L14.4788 1.54427C14.3815 1.08139 13.9732 0.75 13.5002 0.75H11.4937C10.9414 0.75 10.4937 1.19772 10.4937 1.75V7.75C10.4937 8.30228 10.9414 8.75 11.4937 8.75H14.7616C15.3966 8.75 15.8708 8.16574 15.7402 7.54427Z" stroke="white" stroke-width="1.5" stroke-linecap="round" stroke-linejoin="round"/>
<path d="M3.49365 8.75V15.75C3.49365 16.3023 3.94137 16.75 4.49365 16.75H16.4937C17.0459 16.75 17.4937 16.3023 17.4937 15.75V8.75" stroke="white" stroke-width="1.5" stroke-linecap="round" stroke-linejoin="round"/>
<path d="M8.49365 16.25V13.75C8.49365 13.1977 8.94137 12.75 9.49365 12.75H11.4937C12.0459 12.75 12.4937 13.1977 12.4937 13.75V16.25" stroke="white" stroke-width="1.5" stroke-linecap="round" stroke-linejoin="round"/>
</svg>
