<svg width="18" height="18" viewBox="0 0 18 18" fill="none" xmlns="http://www.w3.org/2000/svg">
<path d="M8.78801 11.1488C7.48491 11.1488 6.42432 10.0894 6.42432 8.78511C6.42432 7.48086 7.48491 6.42139 8.78801 6.42139C10.09 6.42139 11.1494 7.48086 11.1494 8.78511C11.1494 10.0894 10.09 11.1488 8.78801 11.1488ZM8.78801 7.03397C7.82193 7.03397 7.03687 7.82016 7.03687 8.78511C7.03687 9.75005 7.82193 10.5362 8.78801 10.5362C9.75182 10.5362 10.5369 9.75005 10.5369 8.78511C10.5369 7.82016 9.75182 7.03397 8.78801 7.03397Z" fill="white" stroke="white" stroke-width="0.5"/>
<path d="M7.75838 17.3213C7.61834 17.3213 7.49594 17.2257 7.46178 17.0902L6.93462 14.9821C6.52416 14.8552 6.11939 14.6833 5.72829 14.4709L3.85361 15.5964C3.73349 15.6687 3.57921 15.6488 3.48016 15.5508L2.02334 14.0941C1.92429 13.995 1.9055 13.8407 1.9778 13.7206L3.10329 11.8482C2.89436 11.4611 2.72642 11.0574 2.60174 10.643L0.482271 10.1124C0.34678 10.0788 0.25 9.95585 0.25 9.81638V7.7584C0.25 7.61721 0.34678 7.49482 0.482271 7.4618L2.58922 6.93577C2.71845 6.52075 2.89037 6.11656 3.10158 5.72717L1.97609 3.85248C1.90379 3.73122 1.92258 3.57696 2.02163 3.47791L3.47617 2.02337C3.57637 1.92318 3.73065 1.90324 3.85077 1.97782L5.72544 3.10215C6.11142 2.8955 6.51505 2.72644 6.92949 2.60177L7.45893 0.482282C7.49366 0.345652 7.61549 0.25 7.75553 0.25H9.81352C9.95357 0.25 10.0771 0.345652 10.1101 0.482282L10.6373 2.59152C11.0512 2.72074 11.4559 2.89154 11.8425 3.10104L13.7194 1.97441C13.8373 1.90553 13.9927 1.92316 14.0929 2.02108L15.5474 3.47561C15.6476 3.57467 15.6664 3.72896 15.5941 3.85022L14.4686 5.72717C14.6753 6.11201 14.8432 6.51564 14.9679 6.92781L17.0896 7.4595C17.2263 7.49309 17.3219 7.61606 17.3219 7.7561V9.81183C17.3219 9.95187 17.2263 10.0754 17.0896 10.1084L14.9679 10.6402C14.8432 11.0557 14.6753 11.4593 14.4698 11.8419L15.5964 13.7177C15.6687 13.839 15.6499 13.9933 15.5497 14.0923L14.0952 15.5491C13.995 15.6482 13.8407 15.6647 13.7217 15.5958L11.8448 14.4692C11.4576 14.6804 11.0529 14.8506 10.6384 14.9804L10.1135 17.0885C10.0788 17.224 9.95698 17.3196 9.8158 17.3196L7.75838 17.3213ZM5.7226 13.81C5.77497 13.81 5.82848 13.8231 5.8763 13.851C6.32548 14.11 6.79571 14.3092 7.27278 14.4413C7.37866 14.4715 7.4595 14.5569 7.4874 14.6639L7.99862 16.7088L9.57727 16.7077L10.0874 14.6616C10.1141 14.5557 10.1949 14.4715 10.3008 14.4413C10.7847 14.3058 11.2538 14.1066 11.6973 13.8498C11.7941 13.7929 11.9119 13.7951 12.0076 13.8521L13.831 14.9474L14.9485 13.8276L13.8532 12.0064C13.7951 11.9108 13.7951 11.7918 13.8498 11.695C14.102 11.2578 14.2956 10.7922 14.4271 10.3066C14.4561 10.1995 14.5403 10.1164 14.6485 10.0897L16.7099 9.57273V7.99523L14.6485 7.47945C14.5409 7.45269 14.4561 7.36959 14.4271 7.26256C14.2967 6.78094 14.1026 6.31296 13.8498 5.8729C13.7951 5.77726 13.7963 5.65828 13.8532 5.56264L14.9463 3.74035L13.8299 2.62397L12.0064 3.71815C11.9119 3.77621 11.7941 3.7779 11.6962 3.7204C11.2516 3.46479 10.7825 3.26555 10.2997 3.13006C10.1938 3.10102 10.113 3.01675 10.0862 2.90973L9.57499 0.862586H7.99634L7.48171 2.92171C7.45495 3.02874 7.37183 3.11412 7.2648 3.14316C6.78091 3.27409 6.31295 3.46879 5.87289 3.72155C5.77725 3.77848 5.65941 3.77735 5.56263 3.71815L3.74146 2.62508L2.62508 3.74261L3.71812 5.56264C3.77619 5.65828 3.77619 5.77726 3.7204 5.87404C3.46365 6.32094 3.26326 6.79115 3.12891 7.27278C3.09873 7.3798 3.01448 7.46065 2.90745 7.48741L0.862557 7.99749V9.57614L2.92168 10.0919C3.02928 10.1187 3.1141 10.2018 3.14314 10.3088C3.27408 10.7916 3.46763 11.2595 3.72268 11.6996C3.77847 11.7964 3.77733 11.9154 3.71926 12.011L2.62622 13.8299L3.74374 14.9485L5.5649 13.8544C5.61329 13.8248 5.66794 13.81 5.7226 13.81Z" fill="white" stroke="white" stroke-width="0.5"/>
</svg>
