<svg width="17" height="17" viewBox="0 0 17 17" fill="none" xmlns="http://www.w3.org/2000/svg">
<path d="M12.8169 5.04433C13.175 5.04433 13.5109 4.90429 13.762 4.65267C14.0142 4.40047 14.1536 4.06459 14.1536 3.70764C14.1536 3.35069 14.0136 3.01595 13.762 2.76489C13.2559 2.25879 12.3797 2.25993 11.8742 2.76489C11.3539 3.28522 11.355 4.13232 11.8742 4.65152C12.1253 4.90428 12.4611 5.04433 12.8169 5.04433ZM12.3074 3.19756C12.444 3.06207 12.6257 2.98635 12.8175 2.98635C13.0111 2.98635 13.1921 3.06206 13.3287 3.19869C13.4654 3.33418 13.5399 3.51579 13.5399 3.70821C13.5399 3.90177 13.4654 4.08393 13.3287 4.21942C13.1921 4.35605 13.0105 4.43178 12.8164 4.43178C12.6251 4.43178 12.444 4.35605 12.3068 4.21942C12.0262 3.93763 12.0262 3.47993 12.3074 3.19756Z" fill="white" stroke="white" stroke-width="0.5"/>
<path d="M15.934 0.592059C15.8748 0.530006 15.7883 0.488445 15.7029 0.503246L8.8014 0.856777C8.72455 0.860193 8.65452 0.891507 8.59987 0.94559L0.589951 8.95665C0.531883 9.01358 0.5 9.091 0.5 9.17241C0.5 9.25496 0.532452 9.33239 0.589951 9.38932L7.13566 15.9373C7.19544 15.9965 7.27457 16.0261 7.3537 16.0261C7.43169 16.0261 7.50911 15.9959 7.56946 15.9373L15.5805 7.92623C15.6352 7.87158 15.6659 7.80042 15.6705 7.7247L16.024 0.824324C16.0286 0.737792 15.9961 0.653542 15.934 0.592059ZM15.0647 7.57613L7.3537 15.2872L1.23952 9.17298L8.95055 1.46193L15.3961 1.13175L15.0647 7.57613Z" fill="white" stroke="white"/>
<path d="M5.6814 11.573C5.74117 11.6328 5.82032 11.6629 5.89945 11.6629C5.97745 11.6629 6.05487 11.6328 6.11521 11.573L9.76209 7.92611C9.88222 7.80599 9.88222 7.61243 9.76209 7.49231C9.64311 7.37333 9.44841 7.37333 9.32943 7.49231L5.6814 11.1392C5.56128 11.2599 5.56128 11.4534 5.6814 11.573Z" fill="white" stroke="white" stroke-width="0.5"/>
<path d="M8.30781 6.03846C8.18769 5.91947 7.99413 5.91947 7.87401 6.03846L4.22827 9.68534C4.10815 9.80546 4.10815 9.99902 4.22827 10.118C4.28805 10.1778 4.3649 10.2079 4.44403 10.2079C4.52317 10.2079 4.60058 10.1778 4.66092 10.118L8.30781 6.47225C8.42679 6.35213 8.42679 6.15858 8.30781 6.03846Z" fill="white" stroke="white" stroke-width="0.5"/>
</svg>
