<svg width="19" height="13" viewBox="0 0 19 13" fill="none" xmlns="http://www.w3.org/2000/svg">
<path d="M1.5 2.5H6.5" stroke="white" stroke-linecap="round" stroke-linejoin="round"/>
<path d="M2.5 4.5H6.5" stroke="white" stroke-linecap="round" stroke-linejoin="round"/>
<path d="M3.5 6.5H6.5" stroke="white" stroke-linecap="round" stroke-linejoin="round"/>
<path d="M4.5 8.5H6.5" stroke="white" stroke-linecap="round" stroke-linejoin="round"/>
<path d="M5.88477 10C5.6465 10.2655 5.5 10.6151 5.5 11H4C3.72386 11 3.5 10.7761 3.5 10.5C3.5 10.2239 3.72386 10 4 10H5.88477ZM12.5 0C13.3284 0 14 0.671573 14 1.5V9.5C14 10.3284 13.3284 11 12.5 11H8.5C8.5 10.6151 8.3535 10.2655 8.11523 10H12.5C12.7761 10 13 9.77614 13 9.5V1.5C13 1.22386 12.7761 1 12.5 1H0.5C0.223858 1 0 0.776142 0 0.5C0 0.223858 0.223858 0 0.5 0H12.5Z" fill="white"/>
<path d="M14.8848 9.99964C14.6465 10.2652 14.5 10.6148 14.5 10.9996H12.5C12.2239 10.9996 12 10.7758 12 10.4996C12.0001 10.2236 12.2239 9.99964 12.5 9.99964H14.8848ZM13.0361 4.31409C13.1387 4.05779 13.4292 3.93326 13.6855 4.03577L18.0566 5.78382C18.626 6.01156 18.9998 6.5632 19 7.1764V9.49964C19 10.3281 18.3284 10.9996 17.5 10.9996C17.5 10.6148 17.3535 10.2652 17.1152 9.99964H17.5C17.7761 9.99964 18 9.77578 18 9.49964V7.1764C17.9998 6.97211 17.8752 6.78841 17.6855 6.71253L13.3145 4.96351L13.2246 4.91663C13.0305 4.78869 12.9464 4.53837 13.0361 4.31409Z" fill="white"/>
<circle cx="16" cy="11" r="1" fill="white" stroke="white"/>
<circle cx="7" cy="11" r="1" fill="white" stroke="white"/>
</svg>
