<svg width="18" height="16" viewBox="0 0 18 16" fill="none" xmlns="http://www.w3.org/2000/svg">
<path d="M0.882478 14.911C0.975842 14.0069 1.48536 11.3273 4.27716 9.91947C5.23471 11.4292 6.90444 12.3554 8.70055 12.3554C10.4967 12.3554 12.1653 11.4292 13.124 9.91947C13.9301 10.3254 14.5312 10.8355 14.9992 11.3752L15.4375 10.9379C14.8751 10.2952 14.1265 9.69688 13.1319 9.24316C12.9885 9.17655 12.816 9.23287 12.7374 9.37235C11.9188 10.8343 10.3714 11.7429 8.70113 11.7429C7.02969 11.7429 5.48463 10.8343 4.66485 9.37235C4.58458 9.23344 4.41493 9.17541 4.27147 9.24316C0.297818 11.0535 0.25 15.1751 0.25 15.2161C0.25 15.2987 0.282444 15.3761 0.339942 15.433C0.39801 15.4911 0.47544 15.523 0.556849 15.523H12.077L11.4645 14.9104L0.882478 14.911Z" fill="white" stroke="white" stroke-width="0.5"/>
<path d="M8.7 10.6356C10.6658 10.6356 12.2649 9.0376 12.2649 7.07183V3.81377C12.2649 1.84801 10.6658 0.25 8.7 0.25C6.73424 0.25 5.13623 1.84801 5.13623 3.81377V7.07183C5.1368 9.0376 6.73424 10.6356 8.7 10.6356ZM5.74936 3.81377C5.74936 2.1873 7.07239 0.862551 8.70056 0.862551C10.3293 0.862551 11.6529 2.18673 11.6529 3.81377V7.07183C11.6529 8.6983 10.3299 10.0242 8.70056 10.0242C7.07296 10.0242 5.74936 8.69887 5.74936 7.07183V3.81377Z" fill="white" stroke="white" stroke-width="0.5"/>
<path d="M16.4609 12.5136L16.7558 12.2186C16.8759 12.0985 16.8759 11.905 16.7558 11.7849C16.696 11.7257 16.6169 11.696 16.5377 11.696C16.4598 11.696 16.3823 11.7262 16.322 11.7849L16.162 11.9448L15.7185 12.3883L13.6281 14.4765L12.3922 13.2388C12.3324 13.179 12.2533 13.1489 12.1741 13.1489C12.0961 13.1489 12.0187 13.179 11.9584 13.2388C11.8394 13.3578 11.8394 13.5525 11.9584 13.6715L13.196 14.9103L13.4135 15.1272C13.4727 15.1869 13.5501 15.216 13.6281 15.216C13.7072 15.216 13.7858 15.1869 13.8461 15.1272L14.0619 14.9103L16.0055 12.9678L16.4609 12.5136Z" fill="white" stroke="white" stroke-width="0.5"/>
</svg>
