<svg width="14" height="14" viewBox="0 0 14 14" fill="none" xmlns="http://www.w3.org/2000/svg">
<path d="M13.0995 0.25H10.9168C10.8354 0.25 10.758 0.282426 10.6999 0.339925L4.3341 6.7046C3.21544 6.46777 2.04386 6.8122 1.244 7.61434C0.60241 8.25593 0.25 9.10759 0.25 10.0128C0.25 10.9202 0.60241 11.7719 1.244 12.4123C1.88331 13.0539 2.73612 13.4063 3.64243 13.4063C4.54874 13.4063 5.40038 13.0539 6.04198 12.4123C6.84468 11.6107 7.18512 10.4409 6.95057 9.32221L9.17877 7.094H10.5063C10.6629 7.094 10.7933 6.9773 10.8098 6.82131L10.9664 5.40948H12.1892C12.3446 5.40948 12.4761 5.29277 12.4926 5.13679L12.664 3.60765L13.3158 2.95525C13.3728 2.89718 13.4046 2.8209 13.4046 2.73836V0.557405C13.4052 0.388325 13.2686 0.25 13.0995 0.25ZM12.7926 2.61198L12.1556 3.25129C12.1066 3.30025 12.0753 3.36459 12.0679 3.43461L11.9165 4.79693H10.7358C10.6544 4.79693 10.5291 4.8772 10.4711 4.9347C10.4221 4.98366 10.3908 5.04796 10.3834 5.11684L10.2331 6.4809H9.0524C8.97099 6.4809 8.89354 6.51332 8.83548 6.57082L6.39723 9.00911C6.32037 9.08596 6.28961 9.19811 6.31807 9.30286C6.57482 10.2781 6.31012 11.2777 5.60875 11.9779C4.5567 13.0289 2.727 13.0289 1.67722 11.9779C1.15234 11.4531 0.863142 10.7562 0.863142 10.0122C0.863142 9.27039 1.15234 8.57244 1.67722 8.04756C2.19528 7.5295 2.88697 7.24373 3.62534 7.24373C3.87127 7.24373 4.11434 7.27619 4.35231 7.33824C4.45364 7.36613 4.56921 7.33594 4.6472 7.25908L11.0438 0.862551H12.7926V2.61198Z" fill="white" stroke="white" stroke-width="0.5"/>
</svg>
