<svg width="18" height="18" viewBox="0 0 18 18" fill="none" xmlns="http://www.w3.org/2000/svg">
<path d="M15.0624 7.66559C14.7777 7.56539 14.5062 7.51642 14.2386 7.48966V5.69927C14.2386 2.69512 11.7935 0.25 8.78823 0.25C5.78294 0.25 3.33669 2.69512 3.33669 5.69927V7.48966C3.06344 7.51642 2.78733 7.56765 2.49927 7.6707C1.15517 8.15004 0.25 9.42526 0.25 10.8428C0.25 12.2603 1.15517 13.535 2.49927 14.0149C2.8898 14.1549 3.26098 14.2215 3.63102 14.2215H4.66087C4.82881 14.2215 4.96658 14.0849 4.96658 13.9158V7.76806C4.96658 7.59898 4.82881 7.46235 4.66087 7.46235H3.94925V5.69868C3.94925 3.03098 6.11939 0.861995 8.78823 0.861995C11.4559 0.861995 13.6261 3.03155 13.6261 5.69868V7.46235H12.9156C12.7465 7.46235 12.6087 7.59898 12.6087 7.76806V13.9158C12.6087 14.0849 12.7465 14.2215 12.9156 14.2215H13.6386V15.9863V15.9875C13.6397 16.1799 13.5651 16.3598 13.4297 16.4959C13.293 16.6325 13.1103 16.7082 12.9173 16.7082H12.9162H11.0893C11.0324 16.4714 10.9356 16.2465 10.7591 16.07C10.5069 15.819 10.1722 15.6795 9.81523 15.6795C9.07913 15.6795 8.47967 16.2778 8.47967 17.015C8.47967 17.1841 8.61744 17.3208 8.78652 17.3208H10.8434H12.9162H12.9173C13.2754 17.3208 13.6113 17.1819 13.8635 16.9285C14.1145 16.6775 14.2517 16.3439 14.2517 15.9881C14.2517 15.9869 14.2517 15.9869 14.2517 15.9869V14.1948C14.5164 14.168 14.7823 14.1179 15.0635 14.02C16.4167 13.5429 17.3265 12.2666 17.3265 10.8434C17.3265 9.42013 16.4156 8.14379 15.0624 7.66559ZM2.29546 13.2537C1.42388 12.7733 0.861986 11.8516 0.861986 10.8434C0.861986 9.834 1.42331 8.91291 2.29546 8.43186V13.2537ZM4.35402 8.07546V13.6095H3.63102C3.39533 13.6095 3.15737 13.5748 2.90802 13.5037V8.18192C3.15737 8.10962 3.39476 8.0749 3.63102 8.0749L4.35402 8.07546ZM9.1594 16.7082C9.27611 16.4623 9.5266 16.2926 9.81523 16.2926C10.1033 16.2926 10.3532 16.4628 10.4688 16.7082H9.1594ZM14.6542 13.5059C14.4083 13.576 14.1749 13.6095 13.9437 13.6095H13.2207V8.07546H13.9437C14.1749 8.07546 14.4083 8.11019 14.6542 8.17908V13.5059ZM15.2668 13.2606V8.42616C16.1463 8.9055 16.7122 9.82831 16.7122 10.8434C16.7128 11.8573 16.1463 12.7812 15.2668 13.2606Z" fill="white" stroke="white" stroke-width="0.5"/>
</svg>
