<svg width="16" height="18" viewBox="0 0 16 18" fill="none" xmlns="http://www.w3.org/2000/svg">
<path d="M11.0912 16.636H4.89331C4.72537 16.636 4.58761 16.4982 4.58761 16.3292V13.6575C2.07476 12.3686 0.514906 9.85573 0.500104 7.05368C0.485872 4.39054 1.9313 1.89648 4.27166 0.546687C4.3673 0.490897 4.48172 0.490897 4.57736 0.546687C4.67186 0.601339 4.73106 0.703258 4.73106 0.811423V5.83713L7.99253 7.71748L11.2517 5.83713V0.806871C11.2517 0.698137 11.3109 0.596779 11.4054 0.540989C11.5011 0.486337 11.6155 0.486337 11.7112 0.540989C14.0549 1.89419 15.4662 4.29718 15.485 6.96886C15.4992 9.77205 13.9006 12.3771 11.3975 13.6626V16.3292C11.3969 16.4982 11.2603 16.636 11.0912 16.636ZM5.20016 16.0235H10.7855V13.473C10.7855 13.3552 10.8521 13.2476 10.9591 13.1964C13.3484 12.0475 14.885 9.60469 14.8719 6.97286C14.8553 4.70253 13.7412 2.64113 11.8643 1.36136V6.01475C11.8643 6.12349 11.8051 6.22481 11.7106 6.2806L8.14568 8.33744C8.05004 8.39323 7.93561 8.39323 7.83883 8.33744L4.27166 6.2806C4.17716 6.22481 4.11794 6.12406 4.11794 6.01475V1.36817C2.23985 2.65477 1.10013 4.7862 1.11266 7.05198C1.12575 9.6804 2.62583 12.0333 5.02653 13.1918C5.13356 13.243 5.20016 13.3506 5.20016 13.4673V16.0235Z" fill="white" stroke="white"/>
</svg>
