<svg width="16" height="16" viewBox="0 0 16 16" fill="none" xmlns="http://www.w3.org/2000/svg">
<path d="M13.4822 8.44392C13.438 8.98935 13.3127 9.52514 13.1104 10.0336M9.00087 13.4082C8.67079 13.4693 8.33581 13.5 8.00012 13.5C6.60702 13.5 5.26581 12.9714 4.24737 12.0208M2.59912 6.96092C2.84064 5.70554 3.51193 4.57351 4.49759 3.75941C5.48326 2.94531 6.72173 2.49999 8.00012 2.5C9.18737 2.49999 10.3428 2.88415 11.2936 3.59508" stroke="#F68723" stroke-linecap="round" stroke-linejoin="round"/>
<path fill-rule="evenodd" clip-rule="evenodd" d="M12.2406 12.2504C12.2406 12.4493 12.1616 12.6401 12.0209 12.7807C11.8803 12.9214 11.6895 13.0004 11.4906 13.0004C11.2917 13.0004 11.1009 12.9214 10.9602 12.7807C10.8196 12.6401 10.7406 12.4493 10.7406 12.2504C10.7406 12.0515 10.8196 11.8607 10.9602 11.7201C11.1009 11.5794 11.2917 11.5004 11.4906 11.5004C11.6895 11.5004 11.8803 11.5794 12.0209 11.7201C12.1616 11.8607 12.2406 12.0515 12.2406 12.2504ZM13.7614 5.7338C13.7614 5.93272 13.6824 6.12348 13.5417 6.26413C13.4011 6.40479 13.2103 6.4838 13.0114 6.4838C12.8125 6.4838 12.6217 6.40479 12.4811 6.26413C12.3404 6.12348 12.2614 5.93272 12.2614 5.7338C12.2614 5.53489 12.3404 5.34413 12.4811 5.20347C12.6217 5.06282 12.8125 4.9838 13.0114 4.9838C13.2103 4.9838 13.4011 5.06282 13.5417 5.20347C13.6824 5.34413 13.7614 5.53489 13.7614 5.7338ZM9.875 8.74997C9.875 8.94888 9.79598 9.13965 9.65533 9.2803C9.51467 9.42095 9.32391 9.49997 9.125 9.49997C8.92608 9.49997 8.73532 9.42095 8.59467 9.2803C8.45401 9.13965 8.375 8.94888 8.375 8.74997C8.375 8.55106 8.45401 8.36029 8.59467 8.21964C8.73532 8.07899 8.92608 7.99997 9.125 7.99997C9.32391 7.99997 9.51467 8.07899 9.65533 8.21964C9.79598 8.36029 9.875 8.55106 9.875 8.74997ZM3.521 9.70522C3.521 9.90413 3.44198 10.0949 3.30133 10.2355C3.16067 10.3762 2.96991 10.4552 2.771 10.4552C2.57208 10.4552 2.38132 10.3762 2.24067 10.2355C2.10001 10.0949 2.021 9.90413 2.021 9.70522C2.021 9.50631 2.10001 9.31554 2.24067 9.17489C2.38132 9.03424 2.57208 8.95522 2.771 8.95522C2.96991 8.95522 3.16067 9.03424 3.30133 9.17489C3.44198 9.31554 3.521 9.50631 3.521 9.70522ZM13.0114 3.98389C12.5473 3.98389 12.1022 4.16826 11.774 4.49645C11.4458 4.82464 11.2614 5.26976 11.2614 5.73389C11.2629 5.94974 11.3044 6.16345 11.3837 6.36422L10.1428 7.32714C9.84599 7.11458 9.4901 7.00018 9.125 6.99997C8.70338 7.00001 8.29595 7.15225 7.97763 7.42871C7.65931 7.70518 7.4515 8.08727 7.39241 8.50472L4.35491 8.96139C4.21367 8.6606 3.98971 8.40624 3.70921 8.22806C3.42872 8.04988 3.1033 7.95525 2.771 7.95522C2.30687 7.95522 1.86175 8.13959 1.53356 8.46778C1.20537 8.79597 1.021 9.24109 1.021 9.70522C1.021 10.1693 1.20537 10.6145 1.53356 10.9427C1.86175 11.2708 2.30687 11.4552 2.771 11.4552C3.19264 11.4552 3.60009 11.3029 3.91841 11.0264C4.23673 10.7499 4.44453 10.3678 4.50358 9.9503L7.54216 9.49364C7.6833 9.79429 7.90709 10.0486 8.18737 10.2268C8.46766 10.405 8.79286 10.4997 9.125 10.5C9.30269 10.4993 9.47924 10.4715 9.64858 10.4176L10.139 11.1432C9.88236 11.4552 9.74159 11.8465 9.74058 12.2505C9.74058 12.7146 9.92495 13.1597 10.2531 13.4879C10.5813 13.8161 11.0265 14.0005 11.4906 14.0005C11.9547 14.0005 12.3998 13.8161 12.728 13.4879C13.0562 13.1597 13.2406 12.7146 13.2406 12.2505C13.2406 11.7863 13.0562 11.3412 12.728 11.013C12.3998 10.6848 11.9547 10.5005 11.4906 10.5005C11.3129 10.5011 11.1363 10.5288 10.967 10.5826L10.4767 9.85705C10.7333 9.54505 10.874 9.1539 10.875 8.74997C10.8748 8.53348 10.8345 8.3189 10.756 8.11714L11.9964 7.15447C12.2922 7.36727 12.647 7.48243 13.0114 7.48389C13.2412 7.48389 13.4688 7.43862 13.6811 7.35068C13.8934 7.26273 14.0863 7.13383 14.2488 6.97132C14.4114 6.80882 14.5403 6.6159 14.6282 6.40358C14.7161 6.19126 14.7614 5.9637 14.7614 5.73389C14.7614 5.50407 14.7161 5.27651 14.6282 5.06419C14.5403 4.85187 14.4114 4.65895 14.2488 4.49645C14.0863 4.33395 13.8934 4.20504 13.6811 4.1171C13.4688 4.02915 13.2412 3.98389 13.0114 3.98389Z" fill="#F68723"/>
</svg>
