<svg width="12" height="12" viewBox="0 0 12 12" fill="none" xmlns="http://www.w3.org/2000/svg">
<path d="M9.33382 9.33333H8.16716V10.5H1.16716V1.16667H8.16716V2.33333H9.33382V0.583333C9.33382 0.428624 9.27236 0.280251 9.16297 0.170854C9.05357 0.0614581 8.9052 0 8.75049 0H0.583821C0.429111 0 0.280738 0.0614581 0.171342 0.170854C0.0619459 0.280251 0.000488281 0.428624 0.000488281 0.583333V11.0833C0.000488281 11.238 0.0619459 11.3864 0.171342 11.4958C0.280738 11.6052 0.429111 11.6667 0.583821 11.6667H8.75049C8.9052 11.6667 9.05357 11.6052 9.16297 11.4958C9.27236 11.3864 9.33382 11.238 9.33382 11.0833V9.33333ZM8.16716 5.25H4.08382V6.41667H8.16716V8.16667L11.0838 5.83333L8.16716 3.5V5.25Z" fill="#002B59"/>
</svg>
