<svg width="15" height="15" viewBox="0 0 15 15" fill="none" xmlns="http://www.w3.org/2000/svg">
<path d="M9.84375 8.875C11.2535 8.875 12.3748 10.0434 12.375 11.458V12.5C12.375 12.7761 12.1511 13 11.875 13H3.125C2.84886 13 2.625 12.7761 2.625 12.5V11.458C2.62517 10.0434 3.74653 8.875 5.15625 8.875H9.84375ZM5.15625 9.875C4.32252 9.875 3.62517 10.5717 3.625 11.458V12H11.375V11.458C11.3748 10.5717 10.6775 9.875 9.84375 9.875H5.15625ZM7.5 1.375C9.15685 1.375 10.5 2.71815 10.5 4.375C10.5 6.03185 9.15685 7.375 7.5 7.375C5.84315 7.375 4.5 6.03185 4.5 4.375C4.5 2.71815 5.84315 1.375 7.5 1.375ZM7.5 2.375C6.39543 2.375 5.5 3.27043 5.5 4.375C5.5 5.47957 6.39543 6.375 7.5 6.375C8.60457 6.375 9.5 5.47957 9.5 4.375C9.5 3.27043 8.60457 2.375 7.5 2.375Z" fill="#F68723"/>
</svg>
