<svg width="13" height="12" viewBox="0 0 13 12" fill="none" xmlns="http://www.w3.org/2000/svg">
<path d="M10.659 5.02843C10.459 4.96386 10.2681 4.93231 10.0801 4.91507V3.76138C10.0801 1.82558 8.36188 0.25 6.25 0.25C4.13812 0.25 2.41909 1.82558 2.41909 3.76138V4.91507C2.22706 4.93231 2.03304 4.96532 1.83061 5.03172C0.886085 5.3406 0.25 6.16232 0.25 7.07575C0.25 7.98917 0.886085 8.81053 1.83061 9.11977C2.10505 9.21001 2.36588 9.25292 2.62592 9.25292H3.34961C3.46763 9.25292 3.56444 9.16489 3.56444 9.05594V5.09445C3.56444 4.9855 3.46763 4.89747 3.34961 4.89747H2.84955V3.761C2.84955 2.042 4.37455 0.644355 6.25 0.644355C8.12465 0.644355 9.64965 2.04236 9.64965 3.761V4.89747H9.15038C9.03157 4.89747 8.93476 4.9855 8.93476 5.09445V9.05594C8.93476 9.16489 9.03157 9.25292 9.15038 9.25292H9.65845V10.3901V10.3909C9.65925 10.5148 9.60685 10.6308 9.51163 10.7184C9.41562 10.8065 9.2872 10.8553 9.15159 10.8553H9.15079H7.86701C7.82701 10.7027 7.759 10.5578 7.63498 10.4441C7.45776 10.2823 7.22253 10.1924 6.97169 10.1924C6.45443 10.1924 6.03317 10.5779 6.03317 11.053C6.03317 11.1619 6.12998 11.25 6.2488 11.25H7.69419H9.15079H9.15159C9.40322 11.25 9.63925 11.1605 9.81648 10.9972C9.9929 10.8355 10.0893 10.6205 10.0893 10.3912C10.0893 10.3905 10.0893 10.3905 10.0893 10.3905V9.23569C10.2753 9.21844 10.4622 9.18616 10.6598 9.12306C11.6107 8.81565 12.25 7.9932 12.25 7.0761C12.25 6.15901 11.6099 5.33657 10.659 5.02843ZM1.68739 8.6293C1.07491 8.31969 0.680056 7.72577 0.680056 7.0761C0.680056 6.4257 1.07451 5.83217 1.68739 5.52219V8.6293ZM3.13398 5.29254V8.85857H2.62592C2.46029 8.85857 2.29307 8.8362 2.11785 8.79035V5.36114C2.29307 5.31455 2.45989 5.29218 2.62592 5.29218L3.13398 5.29254ZM6.51083 10.8553C6.59284 10.6968 6.76887 10.5875 6.97169 10.5875C7.17412 10.5875 7.34975 10.6972 7.43096 10.8553H6.51083ZM10.3721 8.7918C10.1993 8.83692 10.0353 8.85857 9.87288 8.85857H9.36481V5.29254H9.87288C10.0353 5.29254 10.1993 5.31492 10.3721 5.35931V8.7918ZM10.8026 8.63371V5.51852C11.4207 5.8274 11.8183 6.42203 11.8183 7.0761C11.8187 7.72944 11.4207 8.32483 10.8026 8.63371Z" fill="#F68723" stroke="#F68723" stroke-width="0.5"/>
</svg>
